# xmcd
#
# Track frame offsets: 
#        150
#        12725
#        28525
#        43587
#        64472
#        80762
#        93675
#        105635
#        121487
#        139835
#        155550
#        169117
#        181000
#        197662
#        212332
#        223750
#        239645
#        257052
#        273252
#        286990
#        301550
#
# Disc length: 4256 seconds
#
# Revision: 2
# Processed by: cddbd v1.5.2PL0 Copyright (c) Steve Scherf et al.
# Submitted via: ExactAudioCopyFreeDBPlugin 1.0
#
DISCID=34109e15
DTITLE=John Williamson - True Blue - The Very Best Of 25th Anniversary
DTITLE=Disc 1
DYEAR=1995
DGENRE=Country
TTITLE0=You And My Guitar
TTITLE1=Goodbye Blinky Bill
TTITLE2=Just A Dog
TTITLE3=Wrinkles
TTITLE4=Diggers Of The Anzac
TTITLE5=Old Man Emu
TTITLE6=The Shed
TTITLE7=Hawksbury River Lovin'
TTITLE8=The Breaker
TTITLE9=I'm Fair Dinkum
TTITLE10=The Bush Barber
TTITLE11=Bush Town (The Lawnmower Song)
TTITLE12=Dad's Flowers
TTITLE13=Billabong
TTITLE14=Chain Around My Ankle
TTITLE15=I Can't Feel Those Chains Any Longer
TTITLE16=The Vasectomy Song
TTITLE17=Stuffed If I Know
TTITLE18=Home Among The Gum Trees
TTITLE19=Waltzing Matilda
TTITLE20=No One Loves Brisbane Like Jesus
EXTD=
EXTT0=
EXTT1=
EXTT2=
EXTT3=
EXTT4=
EXTT5=
EXTT6=
EXTT7=
EXTT8=
EXTT9=
EXTT10=
EXTT11=
EXTT12=
EXTT13=
EXTT14=
EXTT15=
EXTT16=
EXTT17=
EXTT18=
EXTT19=
EXTT20=
PLAYORDER=
